<svg xmlns="http://www.w3.org/2000/svg" xmlns:xlink="http://www.w3.org/1999/xlink" width="246.647" height="51.408" viewBox="0 0 246.647 51.408">
  <defs>
    <clipPath id="clip-path">
      <rect id="Rectangle_4739" data-name="Rectangle 4739" width="244.843" height="34.412" fill="#eab016"/>
    </clipPath>
  </defs>
  <g id="Group_6463" data-name="Group 6463" transform="matrix(0.998, 0.07, -0.07, 0.998, 2.4, 0)">
    <g id="Group_6462" data-name="Group 6462" transform="translate(0 0)" clip-path="url(#clip-path)">
      <path id="Path_49695" data-name="Path 49695" d="M1.722,29.129,0,27.733a3.885,3.885,0,0,1,2.2-2.379c2.789-1.524,6.18-2.3,9.56-3.119,4.952-1.2,9.939-2.354,14.91-3.528,1.351-.319,2.71-.627,4.049-.962,3.673-.921,7.332-1.857,11-2.778,1.832-.459,3.65-.948,5.526-1.34,3.741-.782,7.53-1.486,11.274-2.265,1.732-.361,3.369-.881,5.109-1.228,3.282-.654,6.609-1.233,9.915-1.847a6.555,6.555,0,0,0,.715-.2c2.385-.724,5.062-.924,7.56-1.455,1.642-.35,3.463-.393,5.163-.662,1.612-.256,3.138-.711,4.76-.934,5.154-.709,10.32-1.4,15.512-2q6.469-.754,13.01-1.289c4.147-.337,8.325-.56,12.5-.782,3.133-.167,6.281-.245,9.42-.381C146.1.414,150.016.223,153.934.046c.472-.022.948-.02,1.422-.014,4.083.045,8.164-.059,12.248-.024,4.047.034,8.1.027,12.144.016a26.288,26.288,0,0,0,4.537.048c.211-.037.563.21.6.224,6.056-.159,11.88-.1,17.974.3,1.185-.543,2.729-.037,4.17.057,3.067.2,6.12.368,9.205.318.609-.009,1.3-.106,1.634.344,1.935-.053,3.893-.355,5.767.369l.757-.477,1.929.371a17.358,17.358,0,0,1,3.422.044,22.127,22.127,0,0,0,3.535.289,3.2,3.2,0,0,1,.918.389c1.334-.037,2.744-.077,4.155-.113a1.647,1.647,0,0,1,.6.03,5.1,5.1,0,0,0,2.665.215l2.93.79.3,1c-1.5.381-2.356,1.5-4.472,1.23l.747.345c-.809.3-1.53.637-2.34.863a13.026,13.026,0,0,1-5.865.633,39.467,39.467,0,0,0-4.215-.217c-2.6-.131-5.2-.28-7.8-.407-2.547-.124-5.1-.239-7.647-.333a16.045,16.045,0,0,0-1.658.109,2.7,2.7,0,0,1-.624.025c-1.533-.295-3.15-.079-4.661-.229-2.458-.243-4.906.051-7.341-.156a6.169,6.169,0,0,0-1.066.146,7.822,7.822,0,0,1-2.779.035,2.9,2.9,0,0,0-.757-.047,73.805,73.805,0,0,1-7.66.081,4.251,4.251,0,0,0-1.534.155l.925.2c-.062.077-.108.165-.137.163-.693-.045-1.563.3-2.041-.294a9.964,9.964,0,0,1-3.7.513c-2.043.056-4.093.05-6.418.073l-.755-.405-.712.521c-1.455-.11-2.964.147-4.555.015a33.546,33.546,0,0,0-3.847.2c-2.093.077-4.194.106-6.288.171-1.255.039-2.506.113-3.76.164-3.266.134-6.533.289-9.8.379-1.194.033-2.4-.1-3.6-.149a6.978,6.978,0,0,0-.788-.016q-3.273.23-6.542.475c-.311.023-.623.05-.935.074-2.649.206-5.3.406-7.949.62a51.247,51.247,0,0,1-6.067.17,6.059,6.059,0,0,0-.922.087c-2.77.332-5.554.633-8.308,1.006s-5.442.931-8.216,1.187c-1.433.131-2.533.614-3.866.8a4.018,4.018,0,0,0-1.007.413,24.8,24.8,0,0,0-3.119-.066,20.443,20.443,0,0,0-2.907.719c-1.859-.217-5.406.378-6.456,1.147-.586.1-1.128.225-1.691.274-.534.045-1.088.009-1.8.009-.154.075-.434.212-.718.346a4.516,4.516,0,0,1-2.265.5,9.538,9.538,0,0,0-2.335.418c-1.066.244-2.107.525-3.166.781-.19.045-.425.028-.613.075-3.177.8-6.356,1.588-9.519,2.4-2.156.553-4.289,1.136-6.43,1.707q-4.8,1.282-9.6,2.569c-2.622.7-5.278,1.373-7.848,2.141-2.152.643-4.178,1.431-6.3,2.111-1.827.587-3.733,1.086-5.559,1.675-1.1.354-2.071.843-3.166,1.2-1.47.48-3.016.878-4.5,1.338-1.677.519-3.374,1.023-4.972,1.619a9.282,9.282,0,0,1-5.079.487,4.556,4.556,0,0,1-1.488-.494Q4.254,32.44,2.3,31.045a1.366,1.366,0,0,1-.58-1.916" transform="translate(0 0)" fill="#eab016"/>
    </g>
  </g>
</svg>
