<svg xmlns="http://www.w3.org/2000/svg" width="60" height="56.51" viewBox="0 0 60 56.51">
  <path id="Union_100" data-name="Union 100" d="M-6639.8,21218.49l16.161-17.627c.013-.012.024-.016.036-.027s.012-.029.021-.037l6.935-7.566a7.6,7.6,0,0,1,10.961,0l6.919,7.547c.016.016.02.037.036.051s.036.029.056.045l16.15,17.615Zm-1.367-31.924,11.324,10.127a.634.634,0,0,0,.061.057l3.842,3.434-15.227,16.605Zm44.774,13.613,15.226-13.613v30.219Zm-7.707-8.4a9.611,9.611,0,0,0-7.066-3.111,9.616,9.616,0,0,0-7.069,3.111l-6.255,6.82-3.385-3.027,10.648-33.59,34.169,11.373-5.324,16.775-9.466,8.469Zm-5.045-21.066a10.211,10.211,0,0,0-4.581,5.748,8.231,8.231,0,0,0,.295,6.184,7.736,7.736,0,0,0,4.625,3.934,10.126,10.126,0,0,0,3.23.572,9.06,9.06,0,0,0,1.475-.125l.229-.039-.053-1.479-.072-.3-.308.061a7.328,7.328,0,0,1-3.669-.336c-3.442-1.139-4.948-4.336-3.754-7.963,1.439-4.35,5.324-6.576,9.246-5.279a5.626,5.626,0,0,1,3.462,2.789,5.988,5.988,0,0,1,.1,4.547,5.18,5.18,0,0,1-2.322,3.119,1.656,1.656,0,0,1-1.231.156.451.451,0,0,1-.307-.283c-.084-.225-.108-.8.644-2.137l2.21-4,.02-.035.073-.209-.156-.143a6.946,6.946,0,0,0-2.475-1.4,6.142,6.142,0,0,0-4.828.4,6.285,6.285,0,0,0-3,3.553,3.574,3.574,0,0,0,.081,2.723,2.889,2.889,0,0,0,1.687,1.488,3.988,3.988,0,0,0,3.7-.561,2.144,2.144,0,0,0,.18,1.178,2.078,2.078,0,0,0,1.279,1.088c2.227.727,5.165-.547,6.448-4.43a7.184,7.184,0,0,0-4.813-9.471,9.584,9.584,0,0,0-3.024-.5A8.838,8.838,0,0,0-6609.142,21170.711Zm-24.812,19.418-5.324-16.775,18.1-6.018-8.45,26.66Zm50.1-7.146,2,1.309-3.374,3.016Zm-56.631,1.309,2-1.309,1.375,4.324Zm33.134-3.736a1.209,1.209,0,0,1-.787-.674,1.776,1.776,0,0,1,.032-1.225,4.165,4.165,0,0,1,3.769-2.953,3.061,3.061,0,0,1,.971.152,3.851,3.851,0,0,1,.8.355l-1.227,2.244a4.164,4.164,0,0,1-3.088,2.17A1.477,1.477,0,0,1-6607.347,21180.555Zm-.4-17.686,2.635-.885.619,1.965Z" transform="translate(6641.165 -21161.98)" fill="#006d95"/>
</svg>
