<svg xmlns="http://www.w3.org/2000/svg" xmlns:xlink="http://www.w3.org/1999/xlink" width="278" height="43.318" viewBox="0 0 278 43.318">
  <defs>
    <clipPath id="clip-path">
      <rect id="Rectangle_3848" data-name="Rectangle 3848" width="83.613" height="28.213" fill="none"/>
    </clipPath>
  </defs>
  <g id="Group_6464" data-name="Group 6464" transform="translate(-75.069 -458)">
    <g id="Group_5803" data-name="Group 5803" transform="translate(75.069 458)">
      <path id="Path_48408" data-name="Path 48408" d="M-3.323-6.325h95.87L84.869,36.992H-11Z" transform="translate(11 6.325)" fill="#1795c4"/>
      <g id="Group_4279" data-name="Group 4279" transform="translate(11.379 7.552)">
        <g id="Group_4278" data-name="Group 4278" transform="translate(0 0)" clip-path="url(#clip-path)">
          <path id="Path_48405" data-name="Path 48405" d="M30.288,0h-9.37a4.789,4.789,0,0,1,1.67,4.648v.029L18.765,28.145H41l1.027-5.877H26.572Z" transform="translate(14.753 0.001)" fill="#fff"/>
          <path id="Path_48406" data-name="Path 48406" d="M60.728,0H30.191L29.11,5.952H41.1L37.164,28.211h6.963L48.06,5.952H59.679Z" transform="translate(22.886 0.002)" fill="#fff"/>
          <path id="Path_48407" data-name="Path 48407" d="M31.115.97A6.354,6.354,0,0,0,27.568.009H4.669V0h-2.1A4.6,4.6,0,0,1,4.3,3.9l-.007.08L0,28.147H26.311c1.758,0,2.733-.9,3.065-2.838L32.823,5.677a6.264,6.264,0,0,0,.009-2.058A3.784,3.784,0,0,0,31.115.97M25.478,7.934c-1.3,7.447-2,11.387-2.07,11.716l-.107.607c-.173.923-.868,2.018-3.2,2.018H8.018l2.91-16.388H22.9c1.886,0,2.435.861,2.561,1.583a1.773,1.773,0,0,1,.021.413Z" transform="translate(0 0.002)" fill="#fff"/>
        </g>
      </g>
    </g>
    <path id="Path_49191" data-name="Path 49191" d="M4.97-27.024h6.564V-50.23H4.97ZM31.856-50.23v12.365L21.612-50.23h-5.4v23.206H22.64V-39.389L32.883-27.024h5.4V-50.23ZM51.084-26.56c6.9,0,10.277-3.448,10.277-7.492,0-8.553-13.161-5.9-13.161-9.448,0-1.16.995-2.089,3.746-2.089a13.712,13.712,0,0,1,6.431,1.79L60.4-48.672a17.379,17.379,0,0,0-8.42-2.022c-6.9,0-10.277,3.381-10.277,7.525,0,8.619,13.194,5.934,13.194,9.614,0,1.127-1.061,1.89-3.779,1.89a14.634,14.634,0,0,1-7.658-2.287L41.3-29.112C43.492-27.587,47.271-26.56,51.084-26.56Zm13.294-.464h6.564V-50.23H64.377Zm11.238,0H86.589c7.691,0,12.962-4.475,12.962-11.6s-5.271-11.6-12.962-11.6H75.616Zm6.564-5.238v-12.73h4.144c3.945,0,6.6,2.354,6.6,6.365s-2.652,6.365-6.6,6.365ZM109.5-32.1v-4.243h10.31v-4.906H109.5v-3.912h11.7V-50.23H103v23.206H121.63V-32.1Zm30.135,5.072h7.028l-5.006-7.293a7.7,7.7,0,0,0,4.542-7.326c0-5.3-3.978-8.586-10.31-8.586H125.277v23.206h6.564V-33.19h3.58Zm-.066-14.62c0,2.122-1.359,3.381-4.078,3.381h-3.647v-6.8h3.647C138.206-45.058,139.565-43.8,139.565-41.644Zm18.4,15.084c6.9,0,10.277-3.448,10.277-7.492,0-8.553-13.161-5.9-13.161-9.448,0-1.16.995-2.089,3.746-2.089a13.712,13.712,0,0,1,6.431,1.79l2.022-4.873a17.379,17.379,0,0,0-8.42-2.022c-6.9,0-10.277,3.381-10.277,7.525,0,8.619,13.194,5.934,13.194,9.614,0,1.127-1.061,1.89-3.779,1.89a14.634,14.634,0,0,1-7.658-2.287l-2.155,4.84C150.372-27.587,154.151-26.56,157.964-26.56Z" transform="translate(184.828 518.424)"/>
  </g>
</svg>
