<svg xmlns="http://www.w3.org/2000/svg" xmlns:xlink="http://www.w3.org/1999/xlink" width="440" height="68.56" viewBox="0 0 440 68.56">
  <defs>
    <clipPath id="clip-path">
      <rect id="Rectangle_3848" data-name="Rectangle 3848" width="132.337" height="44.653" fill="none"/>
    </clipPath>
  </defs>
  <g id="Group_6464" data-name="Group 6464" transform="translate(-75.069 -458)">
    <g id="Group_5803" data-name="Group 5803" transform="translate(75.069 458)">
      <path id="Path_48408" data-name="Path 48408" d="M1.15-6.325H152.886l-12.15,68.56H-11Z" transform="translate(11 6.325)" fill="#1795c4"/>
      <g id="Group_4279" data-name="Group 4279" transform="translate(18.011 11.954)">
        <g id="Group_4278" data-name="Group 4278" transform="translate(0 0)" clip-path="url(#clip-path)">
          <path id="Path_48405" data-name="Path 48405" d="M37,0H22.172a7.58,7.58,0,0,1,2.643,7.356V7.4l-6.05,37.145h35.2l1.626-9.3H31.122Z" transform="translate(34.285 0.001)" fill="#fff"/>
          <path id="Path_48406" data-name="Path 48406" d="M79.152,0H30.821L29.11,9.419H48.086L41.858,44.65h11.02L59.1,9.419h18.39Z" transform="translate(53.186 0.005)" fill="#fff"/>
          <path id="Path_48407" data-name="Path 48407" d="M49.247,1.534A10.057,10.057,0,0,0,43.633.013H7.39V0H4.074A7.279,7.279,0,0,1,6.8,6.176L6.791,6.3,0,44.548H41.643c2.782,0,4.325-1.428,4.851-4.492L51.95,8.984a9.914,9.914,0,0,0,.014-3.257,5.989,5.989,0,0,0-2.717-4.193M40.325,12.557C38.264,24.343,37.153,30.579,37.049,31.1l-.17.961c-.274,1.462-1.374,3.195-5.072,3.195H12.691L17.3,9.317H36.237c2.985,0,3.853,1.363,4.054,2.5a2.805,2.805,0,0,1,.034.653Z" transform="translate(0 0.005)" fill="#fff"/>
        </g>
      </g>
    </g>
    <path id="Path_49191" data-name="Path 49191" d="M4.97-13.231H15.359V-49.959H4.97ZM47.523-49.959v19.571L31.31-49.959H22.757v36.729H32.936V-32.8L49.15-13.231H57.7V-49.959ZM77.956-12.5c10.914,0,16.266-5.457,16.266-11.858,0-13.537-20.831-9.34-20.831-14.954,0-1.836,1.574-3.306,5.929-3.306A21.7,21.7,0,0,1,89.5-39.78l3.2-7.713a27.506,27.506,0,0,0-13.327-3.2c-10.914,0-16.266,5.352-16.266,11.911,0,13.642,20.883,9.392,20.883,15.216,0,1.784-1.679,2.991-5.982,2.991A23.161,23.161,0,0,1,65.888-24.2l-3.411,7.661C65.94-14.122,71.922-12.5,77.956-12.5ZM99-13.231h10.389V-49.959H99Zm17.787,0h17.368c12.173,0,20.516-7.083,20.516-18.364s-8.343-18.364-20.516-18.364H116.783Zm10.389-8.29V-41.669h6.559c6.244,0,10.441,3.725,10.441,10.074s-4.2,10.074-10.441,10.074Zm43.235.262v-6.716h16.318V-35.74H170.408v-6.191h18.522v-8.028H160.123v36.729h29.488v-8.028Zm47.7,8.028h11.124L221.3-24.774a12.188,12.188,0,0,0,7.188-11.6c0-8.4-6.3-13.59-16.318-13.59h-16.79v36.729h10.389V-22.99h5.667ZM218-36.37c0,3.358-2.151,5.352-6.454,5.352h-5.772V-41.774h5.772C215.846-41.774,218-39.78,218-36.37ZM247.118-12.5c10.914,0,16.266-5.457,16.266-11.858,0-13.537-20.831-9.34-20.831-14.954,0-1.836,1.574-3.306,5.929-3.306a21.7,21.7,0,0,1,10.179,2.833l3.2-7.713a27.507,27.507,0,0,0-13.327-3.2c-10.914,0-16.266,5.352-16.266,11.911,0,13.642,20.883,9.392,20.883,15.216,0,1.784-1.679,2.991-5.982,2.991A23.161,23.161,0,0,1,235.05-24.2l-3.411,7.661C235.1-14.122,241.084-12.5,247.118-12.5Z" transform="translate(251.685 524.094)"/>
  </g>
</svg>
