<svg id="Footer_-_Lg_Desktop" data-name="Footer - Lg Desktop" xmlns="http://www.w3.org/2000/svg" width="1440" height="250" viewBox="0 0 1440 250">
  <rect id="Rectangle_7" data-name="Rectangle 7" width="1440" height="250" fill="#eaeaea"/>
  <text id="HELP_DESK" data-name="HELP DESK" transform="translate(519 52)" fill="#313131" font-size="18" font-family="Oxygen-Bold, Oxygen" font-weight="700"><tspan x="0" y="0">HELP DESK</tspan></text>
  <text id="MY_ACCOUNT" data-name="MY ACCOUNT" transform="translate(352 52)" fill="#313131" font-size="18" font-family="Oxygen-Bold, Oxygen" font-weight="700"><tspan x="0" y="0">MY ACCOUNT</tspan></text>
  <text id="Contact_Us_Customer_Service_About_Us_The_DLT_Difference" data-name="Contact Us
Customer Service
About Us
The DLT Difference" transform="translate(519 91)" fill="#525252" font-size="14" font-family="Montserrat" font-weight="500"><tspan x="0" y="0">Contact Us</tspan><tspan x="0" y="32">Customer Service</tspan><tspan x="0" y="64">About Us</tspan><tspan x="0" y="96">The DLT Difference</tspan></text>
  <text id="Order_Status_Wishlist_Sign_In_Create_an_Account" data-name="Order Status
Wishlist
Sign In
Create an Account" transform="translate(352 91)" fill="#525252" font-size="14" font-family="Montserrat" font-weight="500"><tspan x="0" y="0">Order Status</tspan><tspan x="0" y="32">Wishlist</tspan><tspan x="0" y="64">Sign In</tspan><tspan x="0" y="96">Create an Account</tspan></text>
  <text id="Phone:_877_622-2397_Hours:_Mon-Fri_8-5_CT" data-name="Phone: (877) 622-2397
Hours: Mon-Fri, 8-5 CT" transform="translate(41.764 147.448)" fill="#313131" font-size="12" font-family="Montserrat" font-weight="500"><tspan x="0" y="0">Phone: (877) 622-2397</tspan><tspan x="0" y="18">Hours: Mon-Fri, 8-5 CT</tspan></text>
  <text id="DLT_Blog_Shipping_Returns_Reviews_Sitemap" data-name="DLT Blog
Shipping &amp; Returns
Reviews
Sitemap" transform="translate(683 91)" fill="#525252" font-size="14" font-family="Montserrat" font-weight="500"><tspan x="0" y="0">DLT Blog</tspan><tspan x="0" y="32">Shipping &amp; Returns</tspan><tspan x="0" y="64">Reviews</tspan><tspan x="0" y="96">Sitemap</tspan></text>
  <text id="Copyright_2022_DLT_Trading._All_Rights_Reserved._Site_Design_by_EYStudios." data-name="Copyright © 2022 DLT Trading.  All Rights Reserved. Site Design by EYStudios." transform="translate(41 220)" fill="#525252" font-size="11" font-family="Montserrat"><tspan x="0" y="11" xml:space="preserve">Copyright © 2022 DLT Trading.  All Rights Reserved. Site Design by </tspan><tspan y="11" text-decoration="underline">EYStudios</tspan><tspan y="11">.</tspan></text>
  <path id="Path_34" data-name="Path 34" d="M42.81,13.174H25.615L21.434,36.715H38.779c3.356,0,4.355-1.574,4.6-2.9l.153-.871c.1-.468,1.1-6.13,2.976-16.828l.009-.076a2.443,2.443,0,0,0-.031-.593C46.307,14.409,45.52,13.174,42.81,13.174ZM39.055,31.923l-.013.067c-.058,0-.121,0-.188,0H27.06l2.528-14.236H41.561C39.524,29.358,39.112,31.64,39.055,31.923ZM82.228,0,78.921,18.014l17.294-.06-.109.528-2.387,13.51h-19L80.057,0H0L9.8,6.869A3.2,3.2,0,0,1,11.509,9.9L4.439,49.74h43.35a9.105,9.105,0,0,0,4.958-1.358l-.224,1.358,38.06.022H110.1l5.3-30.491.2-1.316h16.7L135.527,0ZM57.072,12.873l-4.953,28.2c-.479,2.783-1.878,4.079-4.4,4.079H9.916l6.163-34.721.011-.116a6.61,6.61,0,0,0-2.476-5.6h3.013l0,.01h32.9a9.138,9.138,0,0,1,5.1,1.38,5.437,5.437,0,0,1,2.464,3.805A9.055,9.055,0,0,1,57.072,12.873ZM90.016,45.157H58.065L63.557,11.44l.006-.04c.405-3.511-.941-5.532-2.4-6.677H74.623L69.286,36.715h22.2Zm38.521-31.891h-16.7l-5.651,31.983h-10l5.652-31.983H84.619l1.552-8.547h43.871ZM2.581,56.5H8.687L6.995,66.974H9.339L11.032,56.5h6.079l.34-2.107H2.922ZM34.209,54.54c-.578-.078-1.871-.127-3.958-.151H22.373L20.34,66.974h2.345l.738-4.565,7.486.009a9.557,9.557,0,0,1,1.281.082.84.84,0,0,1,.8.951c-.018.356-.1,1.019-.258,1.97l-.251,1.554h2.345l.321-1.988c.127-.787.2-1.275.212-1.49a3.5,3.5,0,0,0-.026-.943,1.7,1.7,0,0,0-.346-.724,1.832,1.832,0,0,0-.353-.322A2.508,2.508,0,0,0,35.925,60.3a7.928,7.928,0,0,0,.505-1.944,4.713,4.713,0,0,0-.063-2.254A2.391,2.391,0,0,0,34.209,54.54Zm-.141,3.7a5.27,5.27,0,0,1-.338,1.227,1.421,1.421,0,0,1-1.289.753c-.542.056-1.6.085-3.146.085H23.762l.615-3.806h5.649c1.342,0,2.354.029,3.009.086a1.717,1.717,0,0,1,.869.256C34.128,57.012,34.186,57.509,34.069,58.238Zm14.1-3.849L38.833,66.974h2.725l1.855-2.5h9.406l1.037,2.5h2.574L51.178,54.389Zm-3.217,7.974L49.319,56.5h.231l2.424,5.866Zm29.924-7.74a22.327,22.327,0,0,0-3.952-.233H62.236L60.2,66.974h8.929A24.817,24.817,0,0,0,72.7,66.8a4.241,4.241,0,0,0,3.29-2.5,13.475,13.475,0,0,0,.989-3.549c.138-.849.226-1.553.266-2.092a5.045,5.045,0,0,0-.268-2.409A2.79,2.79,0,0,0,74.877,54.622Zm-.25,5.928c-.308,1.907-.78,3.156-1.4,3.712a2.643,2.643,0,0,1-1.469.554c-.313.033-1.145.05-2.472.05h-6.4L64.241,56.5h6.432c1.223,0,1.993.012,2.286.034a4.107,4.107,0,0,1,1.1.215.978.978,0,0,1,.483.376C74.775,57.472,74.982,58.351,74.627,60.551Zm7.3,6.423h2.344L86.3,54.389H83.956ZM104.908,64.7,96.026,54.389H92.86L90.827,66.974h2.345L94.831,56.7l8.846,10.271h3.211l2.032-12.585h-2.345Zm23.89-9.564a3.272,3.272,0,0,0-1.521-.583c-.4-.054-1.121-.1-2.2-.146-1.061-.044-2.076-.066-3.017-.066a30.729,30.729,0,0,0-4.235.23,3.509,3.509,0,0,0-2.953,2.118,17.71,17.71,0,0,0-1.012,3.944,16.206,16.206,0,0,0-.276,3.925,2.288,2.288,0,0,0,.685,1.476,2.841,2.841,0,0,0,1.565.722,39.084,39.084,0,0,0,5.242.239c1.657,0,2.992-.05,3.967-.15a5.108,5.108,0,0,0,2.369-.74,3.648,3.648,0,0,0,1.26-1.806,25.414,25.414,0,0,0,.782-3.646l.07-.417h-8.693l-.341,2.107h6.327a6.592,6.592,0,0,1-.488,1.724,1.465,1.465,0,0,1-1.144.617,22.712,22.712,0,0,1-3.256.169q-.355,0-2.024-.017a14.134,14.134,0,0,1-3.476-.247.824.824,0,0,1-.376-.226.9.9,0,0,1-.134-.44,17.165,17.165,0,0,1,.342-3.419,10.6,10.6,0,0,1,.823-3.224,1.565,1.565,0,0,1,1.18-.618,33.173,33.173,0,0,1,4.066-.179c1.3,0,2.4.029,3.243.086a8.728,8.728,0,0,1,1.3.165.884.884,0,0,1,.438.216c.021.024.2.267.027,1.455l-.058.408h2.4l.043-.308a5.224,5.224,0,0,0-.034-2.163A2.327,2.327,0,0,0,128.8,55.141Z" transform="translate(41 42.5)" fill="#313131"/>
  <line id="Line_807" data-name="Line 807" y2="158" transform="translate(500.5 35.5)" fill="none" stroke="#c9c9c9" stroke-width="1"/>
  <rect id="Rectangle_2857" data-name="Rectangle 2857" width="556" height="250" transform="translate(884)" fill="#d3d3d3"/>
  <text id="Receive_the_Latest_News_Special_Offers_More_" data-name="Receive the Latest News, Special Offers &amp; More!" transform="translate(945 77.25)" fill="#313131" font-size="16" font-family="Montserrat-SemiBold, Montserrat" font-weight="600"><tspan x="0" y="15">Receive the Latest News, Special Offers &amp; More!</tspan></text>
  <rect id="Rectangle_9" data-name="Rectangle 9" width="330" height="40" rx="20" transform="translate(945 113.25)" fill="#fff"/>
  <text id="Enter_Email" data-name="Enter Email" transform="translate(965 139.25)" fill="#313131" font-size="14" font-family="Oxygen"><tspan x="0" y="0">Enter Email</tspan></text>
  <rect id="Rectangle_2855" data-name="Rectangle 2855" width="90" height="40" rx="20" transform="translate(1285 113.25)" fill="#e04e00"/>
  <text id="Sign_Up" data-name="Sign Up" transform="translate(1302.5 139.25)" fill="#fcfcfc" font-size="14" font-family="Oxygen-Bold, Oxygen" font-weight="700"><tspan x="0" y="0">SIGN UP</tspan></text>
  <text id="Sign_Up_for_the_DLT_Insider" data-name="Sign Up for the DLT Insider" transform="translate(945 60.25)" fill="#313131" font-size="24" font-family="Oxygen-Bold, Oxygen" font-weight="700"><tspan x="0" y="0">SIGN UP FOR THE DLT INSIDER</tspan></text>
  <path id="Path_47134" data-name="Path 47134" d="M360.007,7.312A8.509,8.509,0,0,0,352.981.286c-.195-.029-.39-.038-.435-.285H336.116c-.032.114-.078.228-.208.246a8.41,8.41,0,0,0-7.233,6.137c-.061.182-.051.391-.305.423V25.351c.462.109.37.58.47.856a8.806,8.806,0,0,0,6.314,5.607,3.876,3.876,0,0,0,1.049.052c5.281,0,10.562.051,15.843-.017a7.733,7.733,0,0,0,6.782-4,6.828,6.828,0,0,0,1.218-3.229c.005-.127.13-.178.247-.206V7.746C360.044,7.7,360.036,7.507,360.007,7.312ZM357.28,23a5.808,5.808,0,0,1-5.957,5.939c-2.383-.051-4.77-.01-7.155-.01h-7.39a5.564,5.564,0,0,1-5.406-4.935c-.545-4.746-.2-9.512-.194-14.267a6.558,6.558,0,0,1,1.848-4.975A6.017,6.017,0,0,1,337.2,3.016c4.652-.054,9.306-.1,13.957.005a6.017,6.017,0,0,1,6.112,6.136C357.368,13.77,357.346,18.385,357.28,23ZM344.227,7.807a8.058,8.058,0,0,0-8.246,8.224,8.255,8.255,0,1,0,16.509.009A8.161,8.161,0,0,0,344.227,7.807Zm.029,13.536a5.092,5.092,0,0,1-5.312-5.279,5.285,5.285,0,1,1,10.57-.056A5.117,5.117,0,0,1,344.256,21.343Zm8.578-15.888a1.819,1.819,0,0,0-2.109,2,2.057,2.057,0,0,0,4.113.1A1.82,1.82,0,0,0,352.834,5.455Z" transform="translate(680.477 176.25)" fill="#707070"/>
  <path id="Path_47135" data-name="Path 47135" d="M-768.077,15.962A15.961,15.961,0,0,0-784.038,0,15.962,15.962,0,0,0-800,15.962a15.965,15.965,0,0,0,13.468,15.768V20.575h-4.053V15.962h4.053V12.445c0-4,2.383-6.21,6.029-6.21a24.542,24.542,0,0,1,3.573.312v3.928h-2.013a2.307,2.307,0,0,0-2.6,2.493v2.994h4.427l-.708,4.614h-3.719V31.729A15.965,15.965,0,0,0-768.077,15.962Z" transform="translate(1745 176.25)" fill="#707070"/>
  <path id="Path_47136" data-name="Path 47136" d="M861.352,377.907h-22.4A7.956,7.956,0,0,0,831,385.863v11.2a7.956,7.956,0,0,0,7.956,7.956h22.4a7.956,7.956,0,0,0,7.956-7.956v-11.2a7.956,7.956,0,0,0-7.956-7.956Zm-5.38,14.1L845.5,397a.421.421,0,0,1-.6-.379v-10.3a.421.421,0,0,1,.611-.375l10.475,5.308a.421.421,0,0,1-.009.755Zm0,0" transform="translate(241.691 -198.463)" fill="#707070"/>
</svg>
