<svg id="Header_-_Mobile" data-name="Header - Mobile" xmlns="http://www.w3.org/2000/svg" width="375" height="80" viewBox="0 0 375 80">
  <rect id="Rectangle_37" data-name="Rectangle 37" width="375" height="80" fill="#313131"/>
  <path id="Path_74" data-name="Path 74" d="M31.588,10.183H18.9l-3.085,18.2h12.8c2.476,0,3.213-1.216,3.4-2.243l.113-.674c.072-.362.811-4.738,2.2-13.007l.007-.058a1.977,1.977,0,0,0-.023-.458C34.168,11.138,33.588,10.183,31.588,10.183ZM28.817,24.675l-.01.052-.139,0h-8.7l1.866-11h8.834C29.163,22.692,28.859,24.456,28.817,24.675ZM60.673,0l-2.44,13.924,12.761-.046-.081.408L69.151,24.728H55.133L59.071,0H0L7.234,5.309A2.505,2.505,0,0,1,8.492,7.655L3.275,38.446H35.261a6.492,6.492,0,0,0,3.658-1.05l-.165,1.05,28.083.017h14.4l3.912-23.568.149-1.017H97.627L100,0ZM42.111,9.95l-3.655,21.8C38.1,33.9,37.071,34.9,35.206,34.9H7.317L11.864,8.066l.008-.09A5.207,5.207,0,0,0,10.045,3.65h2.223l0,.008H36.542A6.514,6.514,0,0,1,40.3,4.725a4.222,4.222,0,0,1,1.818,2.941A7.328,7.328,0,0,1,42.111,9.95ZM66.419,34.9H42.844L46.9,8.843l0-.031A5.449,5.449,0,0,0,45.128,3.65h9.933L51.124,28.379H67.508Zm28.423-24.65H82.519l-4.17,24.721H70.974l4.17-24.721H62.437l1.145-6.606H95.953ZM1.9,43.668h4.5l-1.248,8.1h1.73l1.249-8.1h4.485l.251-1.629H2.156Zm23.337-1.512c-.426-.06-1.38-.1-2.92-.117H16.508l-1.5,9.727h1.73l.544-3.528,5.524.007a6.738,6.738,0,0,1,.945.063.641.641,0,0,1,.589.735c-.013.275-.077.788-.19,1.522l-.185,1.2H25.7l.237-1.536c.094-.608.145-.985.157-1.152a2.829,2.829,0,0,0-.019-.729,1.343,1.343,0,0,0-.255-.56,1.376,1.376,0,0,0-.261-.249,1.89,1.89,0,0,0,.953-.936,6.36,6.36,0,0,0,.373-1.5,3.81,3.81,0,0,0-.046-1.742A1.775,1.775,0,0,0,25.242,42.156Zm-.1,2.858a4.225,4.225,0,0,1-.249.948,1.044,1.044,0,0,1-.951.582c-.4.043-1.181.066-2.321.066H17.533l.454-2.941h4.168c.991,0,1.737.022,2.22.066a1.226,1.226,0,0,1,.642.2C25.182,44.067,25.225,44.452,25.138,45.014Zm10.4-2.975-6.889,9.727h2.011l1.369-1.936h6.94l.765,1.936h1.9L37.762,42.04ZM33.169,48.2l3.221-4.534h.17L38.349,48.2Zm22.08-5.983a15.74,15.74,0,0,0-2.916-.18H45.922l-1.5,9.727H51.01a17.492,17.492,0,0,0,2.631-.138,3.152,3.152,0,0,0,2.427-1.936,10.8,10.8,0,0,0,.729-2.743c.1-.657.167-1.2.2-1.617a4.072,4.072,0,0,0-.2-1.862A2.076,2.076,0,0,0,55.249,42.22ZM55.064,46.8a5.278,5.278,0,0,1-1.033,2.869,1.9,1.9,0,0,1-1.084.428c-.231.026-.845.039-1.824.039H46.4l1-6.47h4.746c.9,0,1.471.009,1.686.026a2.911,2.911,0,0,1,.81.167.728.728,0,0,1,.356.29C55.174,44.422,55.326,45.1,55.064,46.8Zm5.384,4.965h1.73l1.5-9.727h-1.73Zm16.959-1.754L70.854,42.04H68.518l-1.5,9.727h1.73l1.224-7.939L76.5,51.767h2.369l1.5-9.727h-1.73Zm17.627-7.393a2.351,2.351,0,0,0-1.123-.451c-.295-.042-.827-.079-1.627-.113-.783-.034-1.532-.051-2.226-.051a21.657,21.657,0,0,0-3.125.178,2.6,2.6,0,0,0-2.179,1.637,14.213,14.213,0,0,0-.747,3.048,13.11,13.11,0,0,0-.2,3.034,1.8,1.8,0,0,0,.505,1.141,2.056,2.056,0,0,0,1.154.558,27.544,27.544,0,0,0,3.868.185,29.173,29.173,0,0,0,2.927-.116,3.651,3.651,0,0,0,1.748-.572,2.821,2.821,0,0,0,.93-1.4,20.451,20.451,0,0,0,.577-2.818l.052-.323H89.152L88.9,48.192h4.669a5.277,5.277,0,0,1-.36,1.332,1.072,1.072,0,0,1-.844.477,16.008,16.008,0,0,1-2.4.131q-.262,0-1.493-.014a9.971,9.971,0,0,1-2.564-.191.605.605,0,0,1-.278-.175.714.714,0,0,1-.1-.34,13.88,13.88,0,0,1,.252-2.642,8.494,8.494,0,0,1,.607-2.492,1.142,1.142,0,0,1,.87-.477,23.378,23.378,0,0,1,3-.138c.962,0,1.767.022,2.393.066a6.164,6.164,0,0,1,.96.127.642.642,0,0,1,.323.167c.015.019.144.206.02,1.125l-.043.316H95.68l.032-.238a4.226,4.226,0,0,0-.025-1.672A1.8,1.8,0,0,0,95.035,42.621Z" transform="translate(90 14.766)" fill="#fcfcfc"/>
  <g id="Group_3114" data-name="Group 3114" transform="translate(236.021 25.688)">
    <path id="ic_search_24px" d="M23.853,21.351H22.535l-.467-.45A10.86,10.86,0,1,0,20.9,22.068l.45.467v1.318l8.341,8.325,2.486-2.486Zm-10.01,0a7.507,7.507,0,1,1,7.507-7.507A7.5,7.5,0,0,1,13.844,21.351Z" transform="translate(-3 -3)" fill="#fff"/>
  </g>
  <rect id="Rectangle_37-2" data-name="Rectangle 37" width="80" height="80" transform="translate(295)" fill="#72ac72"/>
  <path id="ic_shopping_cart_24px" d="M9.555,24.813a2.852,2.852,0,1,0,2.852,2.852A2.848,2.848,0,0,0,9.555,24.813ZM1,2V4.852H3.852L8.985,15.674,7.06,19.167A2.757,2.757,0,0,0,6.7,20.536a2.86,2.86,0,0,0,2.852,2.852h17.11V20.536H10.154a.353.353,0,0,1-.356-.356l.043-.171,1.283-2.324H21.746a2.838,2.838,0,0,0,2.5-1.469l5.1-9.254a1.393,1.393,0,0,0,.171-.684,1.43,1.43,0,0,0-1.426-1.426H7L5.662,2H1ZM23.813,24.813a2.852,2.852,0,1,0,2.852,2.852A2.848,2.848,0,0,0,23.813,24.813Z" transform="translate(305.857 23.741)" fill="#fff"/>
  <text id="_2_" data-name="(2)" transform="translate(342 44.971)" fill="#fff" font-size="17" font-family="Montserrat" font-weight="700"><tspan x="0" y="0">(2)</tspan></text>
  <rect id="Rectangle_3081" data-name="Rectangle 3081" width="70" height="80" fill="#525252"/>
  <path id="ic_menu_24px" d="M3,27.387H33V23.823H3Zm0-8.911H33V14.911H3ZM3,6V9.565H33V6Z" transform="translate(17 24.16)" fill="#fff"/>
</svg>
