<svg id="Group_4364" data-name="Group 4364" xmlns="http://www.w3.org/2000/svg" xmlns:xlink="http://www.w3.org/1999/xlink" width="1440" height="140" viewBox="0 0 1440 140">
  <defs>
    <clipPath id="clip-path">
      <rect id="Rectangle_3848" data-name="Rectangle 3848" width="55.813" height="18.832" fill="none"/>
    </clipPath>
  </defs>
  <rect id="Rectangle_37" data-name="Rectangle 37" width="1440" height="140" fill="#313131"/>
  <path id="Path_74" data-name="Path 74" d="M56.858,18.329H34.021L28.467,51.082H51.5c4.458,0,5.784-2.19,6.114-4.037l.2-1.212c.13-.652,1.459-8.529,3.952-23.413l.012-.105a3.558,3.558,0,0,0-.041-.825C61.5,20.048,60.458,18.329,56.858,18.329ZM51.871,44.414l-.018.093c-.077,0-.161,0-.25,0H35.94L39.3,24.705H55.2C52.494,40.846,51.947,44.02,51.871,44.414ZM109.211,0l-4.392,25.063,22.97-.083-.145.735-3.171,18.8H99.239L106.327,0H0L13.021,9.557a4.51,4.51,0,0,1,2.265,4.222L5.9,69.2H63.471a11.685,11.685,0,0,0,6.584-1.89l-.3,1.89,50.55.03h25.925l7.042-42.423.267-1.831h22.186L180,0ZM75.8,17.911,69.222,57.151c-.636,3.872-2.495,5.675-5.85,5.675H13.17l8.185-48.307.015-.161A9.372,9.372,0,0,0,18.081,6.57h4l-.005.015h43.7A11.725,11.725,0,0,1,72.545,8.5,7.6,7.6,0,0,1,75.817,13.8,13.191,13.191,0,0,1,75.8,17.911Zm43.754,44.916H77.118l7.295-46.91.008-.056c.538-4.885-1.25-7.7-3.191-9.29H99.11L92.022,51.082h29.491Zm51.162-44.37H148.535l-7.506,44.5H127.754l7.507-44.5H112.387l2.061-11.891h58.267ZM3.428,78.6h8.109L9.29,93.181H12.4L14.652,78.6h8.074l.451-2.932H3.88Zm42.007-2.722c-.767-.108-2.485-.177-5.257-.21H29.714l-2.7,17.509h3.114l.98-6.351,9.943.012a12.127,12.127,0,0,1,1.7.114,1.154,1.154,0,0,1,1.061,1.323c-.024.5-.139,1.418-.343,2.74l-.333,2.162h3.114l.427-2.766c.168-1.095.261-1.773.282-2.073a5.093,5.093,0,0,0-.034-1.312,2.418,2.418,0,0,0-.46-1.008A2.477,2.477,0,0,0,46,85.575a3.4,3.4,0,0,0,1.716-1.685,11.448,11.448,0,0,0,.671-2.7,6.859,6.859,0,0,0-.083-3.136A3.2,3.2,0,0,0,45.435,75.882Zm-.187,5.144a7.605,7.605,0,0,1-.449,1.707,1.879,1.879,0,0,1-1.712,1.047c-.72.078-2.125.118-4.178.118H31.56l.816-5.295h7.5c1.783,0,3.127.04,4,.119a2.207,2.207,0,0,1,1.155.356C45.327,79.321,45.4,80.013,45.248,81.026Zm18.729-5.354-12.4,17.509H55.2L57.659,89.7H70.152l1.378,3.484h3.419L67.972,75.671ZM59.7,86.765,65.5,78.6h.306l3.219,8.162ZM99.449,76a28.331,28.331,0,0,0-5.249-.325H82.659l-2.7,17.509H91.818a31.486,31.486,0,0,0,4.736-.248,5.674,5.674,0,0,0,4.369-3.484,19.438,19.438,0,0,0,1.313-4.937c.183-1.182.3-2.161.353-2.911a7.329,7.329,0,0,0-.356-3.352A3.737,3.737,0,0,0,99.449,76Zm-.333,8.248c-.409,2.654-1.035,4.391-1.86,5.165a3.42,3.42,0,0,1-1.951.771c-.416.046-1.52.07-3.283.07h-8.5l1.8-11.646h8.543c1.624,0,2.647.016,3.036.047a5.239,5.239,0,0,1,1.459.3,1.31,1.31,0,0,1,.641.522C99.313,79.96,99.587,81.184,99.116,84.244Zm9.692,8.937h3.114l2.7-17.509h-3.114Zm30.527-3.157-11.8-14.352h-4.2l-2.7,17.509h3.114l2.2-14.291L137.7,93.181h4.264l2.7-17.509h-3.114Zm31.729-13.307a4.232,4.232,0,0,0-2.021-.811c-.53-.075-1.488-.142-2.928-.2-1.41-.061-2.757-.092-4.007-.092a38.983,38.983,0,0,0-5.625.32,4.684,4.684,0,0,0-3.922,2.947,25.584,25.584,0,0,0-1.345,5.487,23.6,23.6,0,0,0-.366,5.461,3.248,3.248,0,0,0,.909,2.053,3.7,3.7,0,0,0,2.078,1,49.58,49.58,0,0,0,6.963.333,52.515,52.515,0,0,0,5.269-.208,6.573,6.573,0,0,0,3.146-1.03,5.077,5.077,0,0,0,1.673-2.512,36.814,36.814,0,0,0,1.039-5.073l.093-.581H160.474l-.453,2.932h8.4a9.5,9.5,0,0,1-.648,2.4,1.929,1.929,0,0,1-1.519.858,28.814,28.814,0,0,1-4.324.236q-.471,0-2.688-.024a17.947,17.947,0,0,1-4.616-.344,1.089,1.089,0,0,1-.5-.315,1.286,1.286,0,0,1-.178-.612,24.984,24.984,0,0,1,.454-4.756A15.288,15.288,0,0,1,155.5,79.7a2.055,2.055,0,0,1,1.567-.859,42.08,42.08,0,0,1,5.4-.249c1.731,0,3.181.04,4.308.12a11.1,11.1,0,0,1,1.727.229,1.156,1.156,0,0,1,.582.3c.028.033.26.372.036,2.024l-.077.568h3.183l.058-.429a7.606,7.606,0,0,0-.045-3.01A3.234,3.234,0,0,0,171.063,76.717Z" transform="translate(41 23.12)" fill="#fcfcfc"/>
  <g id="Group_3117" data-name="Group 3117" transform="translate(-75 -82)">
    <text id="EXCLUSIVES" transform="translate(901.774 198)" fill="#fcfcfc" font-size="22" font-family="Oxygen-Bold, Oxygen" font-weight="700"><tspan x="0" y="0">EXCLUSIVES</tspan></text>
    <text id="NEW" transform="translate(1252.893 198)" fill="#ffaa7c" font-size="22" font-family="Oxygen-Bold, Oxygen" font-weight="700"><tspan x="0" y="0">NEW</tspan></text>
    <g id="Group_3115" data-name="Group 3115" transform="translate(385 170.592)">
      <text id="SHOP_BY_BRAND" data-name="SHOP BY BRAND" transform="translate(12 27.408)" fill="#fcfcfc" font-size="22" font-family="Oxygen-Bold, Oxygen" font-weight="700"><tspan x="0" y="0">SHOP BY BRAND</tspan></text>
      <path id="ic_expand_more_24px" d="M20.8,8.59l-6.416,6.4L7.971,8.59,6,10.561l8.387,8.387,8.387-8.387Z" transform="translate(185 5.102)" fill="#1795c4"/>
    </g>
    <g id="Group_3116" data-name="Group 3116" transform="translate(629.621 170.592)">
      <text id="SHOP_BY_TYPE" data-name="SHOP BY TYPE" transform="translate(5.379 27.408)" fill="#fcfcfc" font-size="22" font-family="Oxygen-Bold, Oxygen" font-weight="700"><tspan x="0" y="0">SHOP BY TYPE</tspan></text>
      <path id="ic_expand_more_24px-2" data-name="ic_expand_more_24px" d="M20.8,8.59l-6.416,6.4L7.971,8.59,6,10.561l8.387,8.387,8.387-8.387Z" transform="translate(155.379 5.102)" fill="#1795c4"/>
    </g>
    <line id="Line_808" data-name="Line 808" y2="34.946" transform="translate(837.774 170.5)" fill="none" stroke="#fff" stroke-width="1"/>
    <path id="Icon_material-star" data-name="Icon material-star" d="M15,21.324,22.416,25.8l-1.968-8.436L27,11.688l-8.628-.732L15,3l-3.372,7.956L3,11.688l6.552,5.676L7.584,25.8Z" transform="translate(864.774 174)" fill="#eab016"/>
    <text id="DROPS" transform="translate(1139.893 198)" fill="#fcfcfc" font-size="22" font-family="Oxygen-Bold, Oxygen" font-weight="700"><tspan x="0" y="0">DROPS</tspan></text>
    <g id="Group_4389" data-name="Group 4389" transform="translate(1065.773 175)">
      <path id="Path_48408" data-name="Path 48408" d="M-5.876-6.325H58.118L52.994,22.59H-11Z" transform="translate(11 6.325)" fill="#e04e00"/>
      <g id="Group_4279" data-name="Group 4279" transform="translate(7.596 5.041)">
        <g id="Group_4278" data-name="Group 4278" transform="translate(0 0)" clip-path="url(#clip-path)">
          <path id="Path_48405" data-name="Path 48405" d="M26.457,0H20.2a3.2,3.2,0,0,1,1.115,3.1v.019L18.765,18.787H33.61l.686-3.923H23.977Z" transform="translate(3.609 0)" fill="#fff"/>
          <path id="Path_48406" data-name="Path 48406" d="M50.215,0H29.832L29.11,3.974h8L34.486,18.832h4.648L41.76,3.974h7.756Z" transform="translate(5.598 0.001)" fill="#fff"/>
          <path id="Path_48407" data-name="Path 48407" d="M20.77.648A4.241,4.241,0,0,0,18.4.007H3.117V0h-1.4a3.07,3.07,0,0,1,1.151,2.6l0,.054L0,18.789H17.563c1.173,0,1.824-.6,2.046-1.895l2.3-13.1a4.181,4.181,0,0,0,.006-1.374A2.526,2.526,0,0,0,20.77.648M17.007,5.3c-.869,4.971-1.338,7.6-1.382,7.82l-.072.405c-.116.616-.579,1.347-2.139,1.347H5.352L7.294,3.931h7.988c1.259,0,1.625.575,1.71,1.056a1.183,1.183,0,0,1,.014.275Z" transform="translate(0 0.001)" fill="#fff"/>
        </g>
      </g>
    </g>
  </g>
  <g id="Group_3114" data-name="Group 3114" transform="translate(-73 15.12)">
    <g id="Rectangle_174" data-name="Rectangle 174" transform="translate(395 7.88)" fill="#fff" stroke="#acacac" stroke-width="1">
      <rect width="600" height="48" stroke="none"/>
      <rect x="0.5" y="0.5" width="599" height="47" fill="none"/>
    </g>
    <path id="ic_search_24px" d="M21.01,18.849H19.872l-.4-.389a9.379,9.379,0,1,0-1.009,1.009l.389.4V21.01l7.2,7.19L28.2,26.053Zm-8.645,0a6.484,6.484,0,1,1,6.484-6.484A6.475,6.475,0,0,1,12.365,18.849Z" transform="translate(956.8 17.6)"/>
    <text id="Search" transform="translate(405 37.88)" fill="#313131" font-size="17" font-family="Oxygen"><tspan x="0" y="0">Search</tspan></text>
  </g>
  <rect id="Rectangle_37-2" data-name="Rectangle 37" width="70" height="70" transform="translate(1305)" fill="#72ac72"/>
  <path id="ic_shopping_cart_24px" d="M7.75,20A2.25,2.25,0,1,0,10,22.25,2.247,2.247,0,0,0,7.75,20ZM1,2V4.25H3.25L7.3,12.789,5.781,15.545a2.175,2.175,0,0,0-.281,1.08,2.257,2.257,0,0,0,2.25,2.25h13.5v-2.25H8.222a.279.279,0,0,1-.281-.281l.034-.135,1.012-1.834h8.381a2.239,2.239,0,0,0,1.969-1.159l4.027-7.3a1.1,1.1,0,0,0,.135-.54A1.128,1.128,0,0,0,22.375,4.25H5.736L4.679,2H1ZM19,20a2.25,2.25,0,1,0,2.25,2.25A2.247,2.247,0,0,0,19,20Z" transform="translate(1316.25 21.625)" fill="#fff"/>
  <text id="_2_" data-name="(2)" transform="translate(1344.75 40)" fill="#fff" font-size="14" font-family="Montserrat" font-weight="700"><tspan x="0" y="0">(2)</tspan></text>
  <text id="Rewards_Customer_Service_SIGN_IN" data-name="Rewards  |  Customer Service  |  SIGN IN" transform="translate(1268 51)" fill="#fcfcfc" font-size="14" font-family="Montserrat" font-weight="500"><tspan x="-280.532" y="0" xml:space="preserve">Rewards  |  Customer Service  |  </tspan><tspan y="0" font-weight="700">SIGN IN</tspan></text>
  <g id="Group_3164" data-name="Group 3164" transform="translate(968 38)">
    <path id="Path_47165" data-name="Path 47165" d="M22.2,201.564a6.368,6.368,0,1,0,.5,2.471A6.331,6.331,0,0,0,22.2,201.564Zm-4.1,5.093a2.045,2.045,0,0,1-1.228.648v.831a.145.145,0,0,1-.042.11.15.15,0,0,1-.11.043h-.641a.153.153,0,0,1-.152-.152v-.831a3.018,3.018,0,0,1-.607-.147,3.2,3.2,0,0,1-.483-.212,2.994,2.994,0,0,1-.351-.228,2.619,2.619,0,0,1-.221-.178q-.043-.041-.083-.085a.145.145,0,0,1-.01-.2l.49-.641a.147.147,0,0,1,.11-.055l.022,0a.114.114,0,0,1,.095.044l.009.009a2.494,2.494,0,0,0,1.154.594,1.67,1.67,0,0,0,.351.038,1.156,1.156,0,0,0,.677-.2.668.668,0,0,0,.293-.579.488.488,0,0,0-.071-.252.9.9,0,0,0-.159-.2,1.4,1.4,0,0,0-.278-.178c-.136-.069-.237-.118-.314-.152s-.193-.082-.38-.154c-.109-.045-.209-.086-.292-.119s-.172-.072-.293-.126-.223-.105-.3-.147-.164-.1-.268-.169a1.723,1.723,0,0,1-.255-.2c-.067-.068-.136-.146-.207-.233a1.152,1.152,0,0,1-.168-.276,1.9,1.9,0,0,1-.1-.316,1.69,1.69,0,0,1-.04-.37,1.631,1.631,0,0,1,.466-1.15,2.187,2.187,0,0,1,1.211-.637v-.855a.154.154,0,0,1,.152-.152h.641a.148.148,0,0,1,.11.043.146.146,0,0,1,.042.109v.837a2.638,2.638,0,0,1,.524.108,3.061,3.061,0,0,1,.414.16,2.326,2.326,0,0,1,.3.178c.1.07.155.111.185.138s.053.049.071.067a.139.139,0,0,1,.024.181l-.386.693a.128.128,0,0,1-.11.076.149.149,0,0,1-.128-.034s-.02-.018-.069-.057-.105-.075-.185-.126a2.572,2.572,0,0,0-.277-.152,2.169,2.169,0,0,0-.354-.123,1.581,1.581,0,0,0-.407-.055,1.244,1.244,0,0,0-.736.2.64.64,0,0,0-.245.756.536.536,0,0,0,.14.2,2.076,2.076,0,0,0,.188.156,1.657,1.657,0,0,0,.266.147c.117.055.211.1.287.129.094.038.206.082.333.131.162.06.291.111.385.15s.207.09.361.165a2.753,2.753,0,0,1,.359.2,2.975,2.975,0,0,1,.295.238,1.227,1.227,0,0,1,.252.3,1.693,1.693,0,0,1,.15.363,1.584,1.584,0,0,1,.062.446A1.815,1.815,0,0,1,18.1,206.657Z" transform="translate(-8.351 -196.035)" fill="#d0d0d0"/>
    <path id="Path_47166" data-name="Path 47166" d="M13.5,193.188a8,8,0,1,0,8,8A8.009,8.009,0,0,0,13.5,193.188Zm0,15.127a7.127,7.127,0,1,1,7.127-7.127A7.135,7.135,0,0,1,13.5,208.315Z" transform="translate(-5.504 -193.188)" fill="#d0d0d0"/>
  </g>
</svg>
