<svg id="Group_4394" data-name="Group 4394" xmlns="http://www.w3.org/2000/svg" xmlns:xlink="http://www.w3.org/1999/xlink" width="1024" height="130" viewBox="0 0 1024 130">
  <defs>
    <clipPath id="clip-path">
      <rect id="Rectangle_3848" data-name="Rectangle 3848" width="48.45" height="16.348" fill="none"/>
    </clipPath>
  </defs>
  <rect id="Rectangle_3957" data-name="Rectangle 3957" width="1024" height="130" fill="#313131"/>
  <path id="Path_48435" data-name="Path 48435" d="M50.54,16.292h-20.3L25.3,45.406H45.782c3.962,0,5.142-1.946,5.435-3.588L51.4,40.74c.115-.579,1.3-7.581,3.513-20.812l.011-.093a3.163,3.163,0,0,0-.037-.733C54.669,17.82,53.74,16.292,50.54,16.292ZM46.108,39.479l-.016.083c-.069,0-.143,0-.222,0H31.946L34.931,21.96H49.066C46.661,36.308,46.175,39.129,46.108,39.479ZM97.076,0l-3.9,22.278,20.417-.074-.129.654-2.819,16.707H88.213L94.513,0H0L11.574,8.495a4.009,4.009,0,0,1,2.014,3.753L5.24,61.514H56.418a10.387,10.387,0,0,0,5.853-1.68l-.265,1.68,44.933.027h23.045l6.26-37.709.238-1.627H156.2L160,0Zm-29.7,15.921L61.53,50.8c-.565,3.442-2.217,5.045-5.2,5.045H11.707l7.275-42.94L19,12.763A8.331,8.331,0,0,0,16.072,5.84h3.557l0,.013H58.467A10.422,10.422,0,0,1,64.484,7.56a6.755,6.755,0,0,1,2.909,4.706A11.725,11.725,0,0,1,67.378,15.921Zm38.892,39.925H68.55l6.484-41.7.007-.05c.478-4.342-1.111-6.841-2.836-8.258H88.1L81.8,45.406h26.214Zm45.477-39.44H132.031L125.359,55.96h-11.8l6.673-39.554H99.9l1.832-10.57h51.793ZM3.047,69.869h7.208l-2,12.958h2.768l2-12.958H20.2l.4-2.606H3.449ZM40.387,67.45c-.682-.1-2.209-.157-4.673-.187h-9.3l-2.4,15.564h2.768l.871-5.645,8.838.011a10.78,10.78,0,0,1,1.512.1,1.026,1.026,0,0,1,.943,1.176c-.021.441-.123,1.26-.3,2.436l-.3,1.922h2.768l.379-2.458c.15-.973.232-1.576.251-1.843a4.527,4.527,0,0,0-.03-1.166,2.149,2.149,0,0,0-.409-.9,2.2,2.2,0,0,0-.417-.4,3.023,3.023,0,0,0,1.525-1.5,10.176,10.176,0,0,0,.6-2.4,6.1,6.1,0,0,0-.074-2.787A2.84,2.84,0,0,0,40.387,67.45Zm-.166,4.573a6.76,6.76,0,0,1-.4,1.517,1.671,1.671,0,0,1-1.522.931c-.64.07-1.889.105-3.714.105H28.053l.726-4.706h6.669c1.585,0,2.78.035,3.552.106a1.962,1.962,0,0,1,1.026.317C40.29,70.508,40.359,71.122,40.221,72.023Zm16.648-4.76L45.845,82.827h3.217l2.19-3.1h11.1l1.225,3.1h3.039l-6.2-15.564Zm-3.8,9.861,5.154-7.255H58.5l2.861,7.255ZM88.4,67.552a25.183,25.183,0,0,0-4.666-.289H73.475l-2.4,15.564H81.616a27.987,27.987,0,0,0,4.21-.22,5.044,5.044,0,0,0,3.884-3.1,17.278,17.278,0,0,0,1.167-4.389c.163-1.05.267-1.921.314-2.587a6.514,6.514,0,0,0-.316-2.98A3.322,3.322,0,0,0,88.4,67.552Zm-.3,7.332c-.364,2.359-.92,3.9-1.653,4.591a3.04,3.04,0,0,1-1.734.685c-.37.041-1.351.062-2.918.062H74.246l1.6-10.352h7.594c1.444,0,2.353.014,2.7.042a4.657,4.657,0,0,1,1.3.266,1.164,1.164,0,0,1,.57.464C88.278,71.076,88.522,72.164,88.1,74.884Zm8.615,7.944h2.768l2.4-15.564H99.117Zm27.135-2.806L113.366,67.263h-3.737l-2.4,15.564H110l1.958-12.7,10.443,12.7h3.79l2.4-15.564H125.82Zm28.2-11.828a3.762,3.762,0,0,0-1.8-.721c-.471-.067-1.323-.126-2.6-.181-1.253-.054-2.451-.081-3.562-.081a34.652,34.652,0,0,0-5,.284,4.164,4.164,0,0,0-3.486,2.619,22.741,22.741,0,0,0-1.2,4.878,20.976,20.976,0,0,0-.325,4.854,2.887,2.887,0,0,0,.808,1.825,3.29,3.29,0,0,0,1.847.893,44.07,44.07,0,0,0,6.189.3,46.68,46.68,0,0,0,4.684-.185,5.842,5.842,0,0,0,2.8-.916,4.513,4.513,0,0,0,1.487-2.233,32.725,32.725,0,0,0,.924-4.509l.082-.516H142.644l-.4,2.606h7.47a8.444,8.444,0,0,1-.576,2.132,1.715,1.715,0,0,1-1.35.763,25.613,25.613,0,0,1-3.844.21q-.419,0-2.389-.022a15.953,15.953,0,0,1-4.1-.306A.968.968,0,0,1,137,79.6a1.143,1.143,0,0,1-.158-.544,22.208,22.208,0,0,1,.4-4.228,13.59,13.59,0,0,1,.972-3.987,1.827,1.827,0,0,1,1.393-.764,37.4,37.4,0,0,1,4.8-.221c1.539,0,2.828.036,3.829.106a9.862,9.862,0,0,1,1.535.2,1.027,1.027,0,0,1,.518.268c.025.03.231.33.032,1.8l-.069.5h2.83l.051-.381a6.761,6.761,0,0,0-.04-2.675A2.875,2.875,0,0,0,152.056,68.193Z" transform="translate(30 23.12)" fill="#fcfcfc"/>
  <g id="Group_4390" data-name="Group 4390" transform="translate(-145 -82)">
    <text id="EXCLUSIVES" transform="translate(793.928 190)" fill="#fcfcfc" font-size="18" font-family="Oxygen-Bold, Oxygen" font-weight="700"><tspan x="0" y="0">EXCLUSIVES</tspan></text>
    <text id="NEW" transform="translate(1078.477 189.96)" fill="#ffaa7c" font-size="18" font-family="Oxygen-Bold, Oxygen" font-weight="700"><tspan x="0" y="0">NEW</tspan></text>
    <g id="Group_3115" data-name="Group 3115" transform="translate(385 174.114)">
      <text id="SHOP_BY_BRAND" data-name="SHOP BY BRAND" transform="translate(10 15.887)" fill="#fcfcfc" font-size="18" font-family="Oxygen-Bold, Oxygen" font-weight="700"><tspan x="0" y="0">SHOP BY BRAND</tspan></text>
      <path id="ic_expand_more_24px" d="M17.38,8.59l-4.932,4.922L7.515,8.59,6,10.105l6.448,6.448L18.9,10.105Z" transform="translate(152 -3.685)" fill="#1795c4"/>
    </g>
    <g id="Group_3116" data-name="Group 3116" transform="translate(581.827 174.114)">
      <text id="SHOP_BY_TYPE" data-name="SHOP BY TYPE" transform="translate(4.068 15.887)" fill="#fcfcfc" font-size="18" font-family="Oxygen-Bold, Oxygen" font-weight="700"><tspan x="0" y="0">SHOP BY TYPE</tspan></text>
      <path id="ic_expand_more_24px-2" data-name="ic_expand_more_24px" d="M17.38,8.59l-4.932,4.922L7.515,8.59,6,10.105l6.448,6.448L18.9,10.105Z" transform="translate(127.068 -3.685)" fill="#1795c4"/>
    </g>
    <line id="Line_808" data-name="Line 808" y2="26.865" transform="translate(747.79 170.5)" fill="none" stroke="#fff" stroke-width="1"/>
    <path id="Icon_material-star" data-name="Icon material-star" d="M12.225,17.087l5.7,3.441-1.513-6.485L21.45,9.679l-6.633-.563L12.225,3,9.633,9.116,3,9.679l5.037,4.363L6.524,20.528Z" transform="translate(764.79 171)" fill="#eab016"/>
    <g id="Group_4393" data-name="Group 4393" transform="translate(-151.416 -8)">
      <text id="DROPS" transform="translate(1139.893 198)" fill="#fcfcfc" font-size="18" font-family="Oxygen-Bold, Oxygen" font-weight="700"><tspan x="0" y="0">DROPS</tspan></text>
      <g id="Group_4389" data-name="Group 4389" transform="translate(1076.344 179.422)">
        <path id="Path_48408" data-name="Path 48408" d="M-6.552-6.325H49l-4.448,25.1H-11Z" transform="translate(11 6.325)" fill="#e04e00"/>
        <g id="Group_4279" data-name="Group 4279" transform="translate(6.594 4.376)">
          <g id="Group_4278" data-name="Group 4278" transform="translate(0 0)" clip-path="url(#clip-path)">
            <path id="Path_48405" data-name="Path 48405" d="M25.442,0h-5.43a2.775,2.775,0,0,1,.968,2.693V2.71l-2.215,13.6H31.652l.6-3.405H23.289Z" transform="translate(0.657 0)" fill="#fff"/>
            <path id="Path_48406" data-name="Path 48406" d="M47.431,0H29.737L29.11,3.45h6.947l-2.28,12.9h4.034l2.279-12.9h6.733Z" transform="translate(1.019 0)" fill="#fff"/>
            <path id="Path_48407" data-name="Path 48407" d="M18.03.563A3.682,3.682,0,0,0,15.974.006H2.706V0H1.491a2.665,2.665,0,0,1,1,2.26l0,.047L0,16.311H15.246c1.018,0,1.584-.523,1.776-1.645l2-11.376A3.63,3.63,0,0,0,19.024,2.1,2.193,2.193,0,0,0,18.03.563M14.763,4.6c-.755,4.315-1.161,6.6-1.2,6.789l-.062.352c-.1.535-.5,1.17-1.857,1.17h-7l1.686-9.5h6.935c1.093,0,1.411.5,1.484.917a1.027,1.027,0,0,1,.012.239Z" transform="translate(0 0)" fill="#fff"/>
          </g>
        </g>
      </g>
    </g>
  </g>
  <g id="Group_4391" data-name="Group 4391" transform="translate(-145 15.12)">
    <g id="Rectangle_174" data-name="Rectangle 174" transform="translate(395 7.88)" fill="#fff" stroke="#acacac" stroke-width="1">
      <rect width="360" height="48" stroke="none"/>
      <rect x="0.5" y="0.5" width="359" height="47" fill="none"/>
    </g>
    <path id="ic_search_24px" d="M18.723,16.836H17.73l-.352-.34a8.188,8.188,0,1,0-.881.881l.34.352v.994L23.126,25,25,23.126Zm-7.547,0a5.66,5.66,0,1,1,5.66-5.66A5.653,5.653,0,0,1,11.176,16.836Z" transform="translate(719.999 17.88)"/>
    <text id="Search" transform="translate(405 37.88)" fill="#313131" font-size="17" font-family="Oxygen"><tspan x="0" y="0">Search</tspan></text>
  </g>
  <rect id="Rectangle_3958" data-name="Rectangle 3958" width="70" height="70" transform="translate(954)" fill="#72ac72"/>
  <path id="ic_shopping_cart_24px" d="M7.75,20A2.25,2.25,0,1,0,10,22.25,2.247,2.247,0,0,0,7.75,20ZM1,2V4.25H3.25L7.3,12.789,5.781,15.545a2.175,2.175,0,0,0-.281,1.08,2.257,2.257,0,0,0,2.25,2.25h13.5v-2.25H8.222a.279.279,0,0,1-.281-.281l.034-.135,1.012-1.834h8.381a2.239,2.239,0,0,0,1.969-1.159l4.027-7.3a1.1,1.1,0,0,0,.135-.54A1.128,1.128,0,0,0,22.375,4.25H5.736L4.679,2H1ZM19,20a2.25,2.25,0,1,0,2.25,2.25A2.247,2.247,0,0,0,19,20Z" transform="translate(966.5 21.625)" fill="#fff"/>
  <text id="_2_" data-name="(2)" transform="translate(995 40)" fill="#fff" font-size="14" font-family="Montserrat" font-weight="700"><tspan x="0" y="0">(2)</tspan></text>
  <text id="Rewards_Customer_Service_SIGN_IN" data-name="Rewards  |  Customer Service  |  SIGN IN" transform="translate(927 51)" fill="#fcfcfc" font-size="14" font-family="Montserrat" font-weight="500"><tspan x="-280.532" y="0" xml:space="preserve">Rewards  |  Customer Service  |  </tspan><tspan y="0" font-weight="700">SIGN IN</tspan></text>
  <g id="Group_4392" data-name="Group 4392" transform="translate(627 38)">
    <path id="Path_47165" data-name="Path 47165" d="M22.2,201.564a6.368,6.368,0,1,0,.5,2.471A6.331,6.331,0,0,0,22.2,201.564Zm-4.1,5.093a2.045,2.045,0,0,1-1.228.648v.831a.145.145,0,0,1-.042.11.15.15,0,0,1-.11.043h-.641a.153.153,0,0,1-.152-.152v-.831a3.018,3.018,0,0,1-.607-.147,3.2,3.2,0,0,1-.483-.212,2.994,2.994,0,0,1-.351-.228,2.619,2.619,0,0,1-.221-.178q-.043-.041-.083-.085a.145.145,0,0,1-.01-.2l.49-.641a.147.147,0,0,1,.11-.055l.022,0a.114.114,0,0,1,.095.044l.009.009a2.494,2.494,0,0,0,1.154.594,1.67,1.67,0,0,0,.351.038,1.156,1.156,0,0,0,.677-.2.668.668,0,0,0,.293-.579.488.488,0,0,0-.071-.252.9.9,0,0,0-.159-.2,1.4,1.4,0,0,0-.278-.178c-.136-.069-.237-.118-.314-.152s-.193-.082-.38-.154c-.109-.045-.209-.086-.292-.119s-.172-.072-.293-.126-.223-.105-.3-.147-.164-.1-.268-.169a1.723,1.723,0,0,1-.255-.2c-.067-.068-.136-.146-.207-.233a1.152,1.152,0,0,1-.168-.276,1.9,1.9,0,0,1-.1-.316,1.69,1.69,0,0,1-.04-.37,1.631,1.631,0,0,1,.466-1.15,2.187,2.187,0,0,1,1.211-.637v-.855a.154.154,0,0,1,.152-.152h.641a.148.148,0,0,1,.11.043.146.146,0,0,1,.042.109v.837a2.638,2.638,0,0,1,.524.108,3.061,3.061,0,0,1,.414.16,2.326,2.326,0,0,1,.3.178c.1.07.155.111.185.138s.053.049.071.067a.139.139,0,0,1,.024.181l-.386.693a.128.128,0,0,1-.11.076.149.149,0,0,1-.128-.034s-.02-.018-.069-.057-.105-.075-.185-.126a2.572,2.572,0,0,0-.277-.152,2.169,2.169,0,0,0-.354-.123,1.581,1.581,0,0,0-.407-.055,1.244,1.244,0,0,0-.736.2.64.64,0,0,0-.245.756.536.536,0,0,0,.14.2,2.076,2.076,0,0,0,.188.156,1.657,1.657,0,0,0,.266.147c.117.055.211.1.287.129.094.038.206.082.333.131.162.06.291.111.385.15s.207.09.361.165a2.753,2.753,0,0,1,.359.2,2.975,2.975,0,0,1,.295.238,1.227,1.227,0,0,1,.252.3,1.693,1.693,0,0,1,.15.363,1.584,1.584,0,0,1,.062.446A1.815,1.815,0,0,1,18.1,206.657Z" transform="translate(-8.351 -196.035)" fill="#d0d0d0"/>
    <path id="Path_47166" data-name="Path 47166" d="M13.5,193.188a8,8,0,1,0,8,8A8.009,8.009,0,0,0,13.5,193.188Zm0,15.127a7.127,7.127,0,1,1,7.127-7.127A7.135,7.135,0,0,1,13.5,208.315Z" transform="translate(-5.504 -193.188)" fill="#d0d0d0"/>
  </g>
</svg>
