<svg xmlns="http://www.w3.org/2000/svg" width="24.882" height="19.72" viewBox="0 0 24.882 19.72">
  <path id="Path_49193" data-name="Path 49193" d="M10.092-33.814l2.552-9.222H6.9L3.538-34.684c-1.334,3.19-1.566,4.292-1.566,5.8A5.375,5.375,0,0,0,7.6-23.316a5.328,5.328,0,0,0,5.568-5.568A5.041,5.041,0,0,0,10.092-33.814Zm13.688,0,2.552-9.222H20.59l-3.364,8.352c-1.334,3.19-1.566,4.292-1.566,5.8a5.375,5.375,0,0,0,5.626,5.568,5.328,5.328,0,0,0,5.568-5.568A5.041,5.041,0,0,0,23.78-33.814Z" transform="translate(26.854 -23.316) rotate(180)" fill="#e04e00"/>
</svg>
